# xmcd
#
# Track frame offsets:
#	150
#	21690
#	52802
#	74928
#	105602
#	131261
#	165631
#	190359
#	216340
#	243289
#	276382
#
# Disc length: 4071 seconds
#
# Revision: 1
# Processed by: cddbd v1.5.2PL0 Copyright (c) Steve Scherf et al.
# Submitted via: audiograbber 1.83.01
#
DISCID=ab0fe50b
DTITLE=boogie licious and Abi Wallenstein - live and pure
DYEAR=2018
DGENRE=Blues
TTITLE0=Everyday - Decoration Day - Sparks Brothers - Sonnyboy
TTITLE1=I Can't Be Satisfied - Muddy Waters
TTITLE2=Don't Start Crying Now - Slim Harpo
TTITLE3=Good Morning Blues - Leadbelly
TTITLE4=Sweet Home Chicago - Robert Johnson
TTITLE5=Alabama Blues - J.B. Lenoir
TTITLE6=I Just Wanna Make Love To You - Willie Dixon
TTITLE7=As Long As I Can See The Light - John Fogerty
TTITLE8=Silver City - Mance Lipscomb
TTITLE9=Same Old Blues - Freddie King
TTITLE10=Shake Your Boogie - Snooky Pryor
EXTD=Abi Wallenstein\nEeco Rijken Rapp\nDavid Herzel\nBertram Becher
EXTT0=
EXTT1=
EXTT2=
EXTT3=
EXTT4=
EXTT5=
EXTT6=
EXTT7=
EXTT8=
EXTT9=
EXTT10=
PLAYORDER=
